<svg width="20" height="20" viewBox="0 0 20 20" fill="none" xmlns="http://www.w3.org/2000/svg">
<g clip-path="url(#clip0_640_1)">
<path d="M9.99996 5C9.77895 5 9.56698 5.0878 9.4107 5.24408C9.25442 5.40036 9.16663 5.61232 9.16663 5.83333V10C9.16667 10.221 9.2545 10.4329 9.41079 10.5892L11.9108 13.0892C12.068 13.241 12.2785 13.325 12.497 13.3231C12.7155 13.3212 12.9245 13.2335 13.079 13.079C13.2335 12.9245 13.3211 12.7155 13.323 12.497C13.3249 12.2785 13.2409 12.068 13.0891 11.9108L10.8333 9.655V5.83333C10.8333 5.61232 10.7455 5.40036 10.5892 5.24408C10.4329 5.0878 10.221 5 9.99996 5Z" fill="#007AFF"/>
<path d="M19.8434 8.44333C19.5573 6.63153 18.7784 4.93331 17.592 3.53447C16.4055 2.13563 14.8572 1.09006 13.1163 0.512166C11.3755 -0.0657305 9.50926 -0.153693 7.72179 0.257902C5.93432 0.669496 4.29449 1.56479 2.98171 2.84583V0.833333C2.98171 0.61232 2.89392 0.400358 2.73764 0.244078C2.58136 0.0877974 2.36939 0 2.14838 0C1.92737 0 1.7154 0.0877974 1.55912 0.244078C1.40284 0.400358 1.31505 0.61232 1.31505 0.833333V4.16667C1.31505 4.60869 1.49064 5.03262 1.8032 5.34518C2.11576 5.65774 2.53969 5.83333 2.98171 5.83333H6.31505C6.53606 5.83333 6.74802 5.74554 6.9043 5.58926C7.06058 5.43298 7.14838 5.22101 7.14838 5C7.14838 4.77899 7.06058 4.56703 6.9043 4.41074C6.74802 4.25446 6.53606 4.16667 6.31505 4.16667H4.02255C5.35421 2.81469 7.10781 1.95825 8.99281 1.73924C10.8778 1.52024 12.7811 1.9518 14.3872 2.96245C15.9934 3.97309 17.2061 5.50214 17.8243 7.29628C18.4426 9.09041 18.4294 11.0419 17.7868 12.8275C17.1443 14.6131 15.9109 16.1255 14.2912 17.1143C12.6715 18.1031 10.7625 18.5088 8.88069 18.2642C6.99884 18.0196 5.25702 17.1395 3.94382 15.7696C2.63062 14.3996 1.82487 12.6222 1.66005 10.7317C1.63844 10.5285 1.54164 10.3408 1.38867 10.2054C1.2357 10.0701 1.03763 9.99677 0.83338 10C0.716834 10.0003 0.601632 10.0249 0.495112 10.0722C0.388592 10.1195 0.293091 10.1884 0.214694 10.2747C0.136296 10.3609 0.0767217 10.4625 0.0397658 10.5731C0.00280982 10.6836 -0.0107172 10.8006 4.66798e-05 10.9167C0.131826 12.2445 0.528027 13.5326 1.16531 14.7049C1.80259 15.8773 2.66806 16.9103 3.71073 17.743C4.7534 18.5757 5.95219 19.1913 7.23646 19.5536C8.52073 19.9158 9.86451 20.0174 11.1886 19.8522C12.5128 19.6871 13.7904 19.2586 14.9464 18.5921C16.1024 17.9255 17.1133 17.0344 17.9195 15.9711C18.7257 14.9078 19.311 13.6939 19.6408 12.4009C19.9707 11.108 20.0384 9.76205 19.84 8.4425L19.8434 8.44333Z" fill="#007AFF"/>
</g>
<defs>
<clipPath id="clip0_640_1">
<rect width="20" height="20" fill="white"/>
</clipPath>
</defs>
</svg>
