<svg width="20" height="20" viewBox="0 0 20 20" fill="none" xmlns="http://www.w3.org/2000/svg">
<path d="M15 20H5.00004C3.89538 19.9987 2.83634 19.5593 2.05522 18.7782C1.27411 17.997 0.834697 16.938 0.833374 15.8333V4.16667C0.834697 3.062 1.27411 2.00296 2.05522 1.22185C2.83634 0.440735 3.89538 0.00132321 5.00004 0L15 0C16.1047 0.00132321 17.1637 0.440735 17.9449 1.22185C18.726 2.00296 19.1654 3.062 19.1667 4.16667V15.8333C19.1654 16.938 18.726 17.997 17.9449 18.7782C17.1637 19.5593 16.1047 19.9987 15 20V20ZM5.00004 1.66667C4.337 1.66667 3.70111 1.93006 3.23227 2.3989C2.76343 2.86774 2.50004 3.50363 2.50004 4.16667V15.8333C2.50004 16.4964 2.76343 17.1323 3.23227 17.6011C3.70111 18.0699 4.337 18.3333 5.00004 18.3333H15C15.6631 18.3333 16.299 18.0699 16.7678 17.6011C17.2366 17.1323 17.5 16.4964 17.5 15.8333V4.16667C17.5 3.50363 17.2366 2.86774 16.7678 2.3989C16.299 1.93006 15.6631 1.66667 15 1.66667H5.00004ZM13.3334 8.33333H6.66671C6.00367 8.33333 5.36778 8.06994 4.89894 7.6011C4.4301 7.13226 4.16671 6.49637 4.16671 5.83333C4.16671 5.17029 4.4301 4.53441 4.89894 4.06557C5.36778 3.59673 6.00367 3.33333 6.66671 3.33333H13.3334C13.9964 3.33333 14.6323 3.59673 15.1011 4.06557C15.57 4.53441 15.8334 5.17029 15.8334 5.83333C15.8334 6.49637 15.57 7.13226 15.1011 7.6011C14.6323 8.06994 13.9964 8.33333 13.3334 8.33333V8.33333ZM6.66671 5C6.44569 5 6.23373 5.0878 6.07745 5.24408C5.92117 5.40036 5.83337 5.61232 5.83337 5.83333C5.83337 6.05435 5.92117 6.26631 6.07745 6.42259C6.23373 6.57887 6.44569 6.66667 6.66671 6.66667H13.3334C13.5544 6.66667 13.7663 6.57887 13.9226 6.42259C14.0789 6.26631 14.1667 6.05435 14.1667 5.83333C14.1667 5.61232 14.0789 5.40036 13.9226 5.24408C13.7663 5.0878 13.5544 5 13.3334 5H6.66671ZM5.00004 10.8333C4.83522 10.8333 4.67411 10.8822 4.53707 10.9738C4.40002 11.0653 4.29321 11.1955 4.23014 11.3478C4.16707 11.5 4.15056 11.6676 4.18272 11.8292C4.21487 11.9909 4.29424 12.1394 4.41078 12.2559C4.52733 12.3725 4.67581 12.4518 4.83747 12.484C4.99912 12.5161 5.16667 12.4996 5.31894 12.4366C5.47121 12.3735 5.60136 12.2667 5.69293 12.1296C5.7845 11.9926 5.83337 11.8315 5.83337 11.6667C5.83337 11.4457 5.74558 11.2337 5.5893 11.0774C5.43302 10.9211 5.22105 10.8333 5.00004 10.8333ZM8.33337 10.8333C8.16856 10.8333 8.00744 10.8822 7.8704 10.9738C7.73336 11.0653 7.62655 11.1955 7.56347 11.3478C7.5004 11.5 7.4839 11.6676 7.51605 11.8292C7.54821 11.9909 7.62757 12.1394 7.74412 12.2559C7.86066 12.3725 8.00915 12.4518 8.1708 12.484C8.33245 12.5161 8.5 12.4996 8.65228 12.4366C8.80455 12.3735 8.9347 12.2667 9.02626 12.1296C9.11783 11.9926 9.16671 11.8315 9.16671 11.6667C9.16671 11.4457 9.07891 11.2337 8.92263 11.0774C8.76635 10.9211 8.55439 10.8333 8.33337 10.8333ZM11.6667 10.8333C11.5019 10.8333 11.3408 10.8822 11.2037 10.9738C11.0667 11.0653 10.9599 11.1955 10.8968 11.3478C10.8337 11.5 10.8172 11.6676 10.8494 11.8292C10.8815 11.9909 10.9609 12.1394 11.0775 12.2559C11.194 12.3725 11.3425 12.4518 11.5041 12.484C11.6658 12.5161 11.8333 12.4996 11.9856 12.4366C12.1379 12.3735 12.268 12.2667 12.3596 12.1296C12.4512 11.9926 12.5 11.8315 12.5 11.6667C12.5 11.4457 12.4122 11.2337 12.256 11.0774C12.0997 10.9211 11.8877 10.8333 11.6667 10.8333ZM5.00004 14.1667C4.83522 14.1667 4.67411 14.2155 4.53707 14.3071C4.40002 14.3987 4.29321 14.5288 4.23014 14.6811C4.16707 14.8334 4.15056 15.0009 4.18272 15.1626C4.21487 15.3242 4.29424 15.4727 4.41078 15.5893C4.52733 15.7058 4.67581 15.7852 4.83747 15.8173C4.99912 15.8495 5.16667 15.833 5.31894 15.7699C5.47121 15.7068 5.60136 15.6 5.69293 15.463C5.7845 15.3259 5.83337 15.1648 5.83337 15C5.83337 14.779 5.74558 14.567 5.5893 14.4107C5.43302 14.2545 5.22105 14.1667 5.00004 14.1667ZM8.33337 14.1667C8.16856 14.1667 8.00744 14.2155 7.8704 14.3071C7.73336 14.3987 7.62655 14.5288 7.56347 14.6811C7.5004 14.8334 7.4839 15.0009 7.51605 15.1626C7.54821 15.3242 7.62757 15.4727 7.74412 15.5893C7.86066 15.7058 8.00915 15.7852 8.1708 15.8173C8.33245 15.8495 8.5 15.833 8.65228 15.7699C8.80455 15.7068 8.9347 15.6 9.02626 15.463C9.11783 15.3259 9.16671 15.1648 9.16671 15C9.16671 14.779 9.07891 14.567 8.92263 14.4107C8.76635 14.2545 8.55439 14.1667 8.33337 14.1667ZM15 10.8333C14.8352 10.8333 14.6741 10.8822 14.5371 10.9738C14.4 11.0653 14.2932 11.1955 14.2301 11.3478C14.1671 11.5 14.1506 11.6676 14.1827 11.8292C14.2149 11.9909 14.2942 12.1394 14.4108 12.2559C14.5273 12.3725 14.6758 12.4518 14.8375 12.484C14.9991 12.5161 15.1667 12.4996 15.3189 12.4366C15.4712 12.3735 15.6014 12.2667 15.6929 12.1296C15.7845 11.9926 15.8334 11.8315 15.8334 11.6667C15.8334 11.4457 15.7456 11.2337 15.5893 11.0774C15.433 10.9211 15.2211 10.8333 15 10.8333ZM15.8334 15C15.8334 14.779 15.7456 14.567 15.5893 14.4107C15.433 14.2545 15.2211 14.1667 15 14.1667H11.6667C11.4457 14.1667 11.2337 14.2545 11.0775 14.4107C10.9212 14.567 10.8334 14.779 10.8334 15C10.8334 15.221 10.9212 15.433 11.0775 15.5893C11.2337 15.7455 11.4457 15.8333 11.6667 15.8333H15C15.2211 15.8333 15.433 15.7455 15.5893 15.5893C15.7456 15.433 15.8334 15.221 15.8334 15Z" fill="#007AFF"/>
</svg>
