<svg width="24" height="24" viewBox="0 0 24 24" fill="none" xmlns="http://www.w3.org/2000/svg">
<g id="ic_russia">
<circle id="Oval" cx="12.0085" cy="11.9924" r="11.9914" fill="white"/>
<path id="Path" d="M23.3144 7.99365H15.9258C16.2467 10.5553 16.2486 13.3779 15.932 15.9428H23.3301C23.762 14.7054 23.9995 13.3766 23.9995 11.9921C23.9997 10.5894 23.7567 9.24429 23.3144 7.99365Z" fill="#3757A6"/>
<path id="Path_2" d="M15.9259 7.99367H23.3143C23.3132 7.98987 23.3121 7.98668 23.3105 7.98324C21.7759 3.6558 17.828 0.471949 13.0847 0.0493164C14.9205 1.05549 15.4567 4.24334 15.9259 7.99367Z" fill="#EFEFEF"/>
<path id="Path_3" d="M13.0852 23.9342C17.837 23.5108 21.7904 20.316 23.3191 15.9769C23.3231 15.9654 23.3265 15.954 23.3307 15.9429H15.9324C15.4668 19.7135 14.9283 22.9238 13.0852 23.9342Z" fill="#E73B36"/>
<path id="Path_4" d="M0.0161133 11.9921C0.0161133 13.3768 0.253936 14.7054 0.68543 15.9428H16.5494C16.8663 13.3777 16.8641 10.5553 16.5435 7.99365H0.701379C0.25905 9.24434 0.0161133 10.5894 0.0161133 11.9921Z" fill="#3757A6"/>
<path id="Path_5" d="M0.705213 7.98314C0.7041 7.98653 0.702935 7.98977 0.701416 7.99357H16.5436C16.074 4.24319 14.9205 1.05539 13.085 0.0492152C12.73 0.0177722 12.371 0 12.0078 0C6.79119 -5.06329e-05 2.35499 3.33165 0.705213 7.98314Z" fill="#EFEFEF"/>
<path id="Path_6" d="M16.5495 15.9429H0.685547C0.689547 15.9541 0.693294 15.9654 0.697091 15.9769C2.34028 20.6403 6.78286 23.9838 12.0079 23.9838C12.3711 23.9838 12.7301 23.966 13.085 23.9342C14.9283 22.9239 16.0839 19.7136 16.5495 15.9429Z" fill="#E73B36"/>
</g>
</svg>
