<svg width="20" height="21" viewBox="0 0 20 21" fill="none" xmlns="http://www.w3.org/2000/svg">
<g clip-path="url(#clip0_127_279)">
<path d="M17.5001 4.31722H14.9167C14.7233 3.37673 14.2116 2.53168 13.4678 1.92449C12.724 1.3173 11.7936 0.985099 10.8334 0.983887L9.16675 0.983887C8.20658 0.985099 7.27618 1.3173 6.53237 1.92449C5.78857 2.53168 5.27683 3.37673 5.08341 4.31722H2.50008C2.27907 4.31722 2.06711 4.40502 1.91083 4.5613C1.75455 4.71758 1.66675 4.92954 1.66675 5.15055C1.66675 5.37157 1.75455 5.58353 1.91083 5.73981C2.06711 5.89609 2.27907 5.98389 2.50008 5.98389H3.33341V16.8172C3.33474 17.9219 3.77415 18.9809 4.55526 19.762C5.33638 20.5432 6.39542 20.9826 7.50008 20.9839H12.5001C13.6047 20.9826 14.6638 20.5432 15.4449 19.762C16.226 18.9809 16.6654 17.9219 16.6667 16.8172V5.98389H17.5001C17.7211 5.98389 17.9331 5.89609 18.0893 5.73981C18.2456 5.58353 18.3334 5.37157 18.3334 5.15055C18.3334 4.92954 18.2456 4.71758 18.0893 4.5613C17.9331 4.40502 17.7211 4.31722 17.5001 4.31722V4.31722ZM9.16675 2.65055H10.8334C11.3503 2.65118 11.8544 2.8117 12.2764 3.11009C12.6985 3.40848 13.0179 3.83013 13.1909 4.31722H6.80925C6.98223 3.83013 7.30167 3.40848 7.72374 3.11009C8.14581 2.8117 8.64985 2.65118 9.16675 2.65055V2.65055ZM15.0001 16.8172C15.0001 17.4803 14.7367 18.1161 14.2678 18.585C13.799 19.0538 13.1631 19.3172 12.5001 19.3172H7.50008C6.83704 19.3172 6.20116 19.0538 5.73231 18.585C5.26347 18.1161 5.00008 17.4803 5.00008 16.8172V5.98389H15.0001V16.8172Z" fill="#007AFF"/>
<path d="M8.33333 15.984C8.55435 15.984 8.76631 15.8963 8.92259 15.74C9.07887 15.5837 9.16667 15.3717 9.16667 15.1507V10.1507C9.16667 9.9297 9.07887 9.71774 8.92259 9.56146C8.76631 9.40518 8.55435 9.31738 8.33333 9.31738C8.11232 9.31738 7.90036 9.40518 7.74408 9.56146C7.5878 9.71774 7.5 9.9297 7.5 10.1507V15.1507C7.5 15.3717 7.5878 15.5837 7.74408 15.74C7.90036 15.8963 8.11232 15.984 8.33333 15.984Z" fill="#007AFF"/>
<path d="M11.6666 15.984C11.8876 15.984 12.0996 15.8963 12.2558 15.74C12.4121 15.5837 12.4999 15.3717 12.4999 15.1507V10.1507C12.4999 9.9297 12.4121 9.71774 12.2558 9.56146C12.0996 9.40518 11.8876 9.31738 11.6666 9.31738C11.4456 9.31738 11.2336 9.40518 11.0773 9.56146C10.921 9.71774 10.8333 9.9297 10.8333 10.1507V15.1507C10.8333 15.3717 10.921 15.5837 11.0773 15.74C11.2336 15.8963 11.4456 15.984 11.6666 15.984Z" fill="#007AFF"/>
</g>
<defs>
<clipPath id="clip0_127_279">
<rect width="20" height="20" fill="white" transform="translate(0 0.983887)"/>
</clipPath>
</defs>
</svg>
