<svg width="20" height="21" viewBox="0 0 20 21" fill="none" xmlns="http://www.w3.org/2000/svg">
<g clip-path="url(#clip0_159_1579)">
<path d="M17.3392 4.55867C17.2617 4.48124 17.1698 4.41982 17.0686 4.37792C16.9675 4.33602 16.8591 4.31445 16.7496 4.31445C16.6401 4.31445 16.5316 4.33602 16.4305 4.37792C16.3293 4.41982 16.2374 4.48124 16.16 4.55867C16.0826 4.63609 16.0211 4.72801 15.9792 4.82917C15.9373 4.93033 15.9158 5.03875 15.9158 5.14825C15.9158 5.25775 15.9373 5.36617 15.9792 5.46733C16.0211 5.56849 16.0826 5.66041 16.16 5.73783C17.5491 7.13025 18.3293 9.01681 18.3293 10.9837C18.3293 12.9505 17.5491 14.8371 16.16 16.2295C16.0036 16.3859 15.9158 16.5979 15.9158 16.8191C15.9158 17.0402 16.0036 17.2523 16.16 17.4087C16.3164 17.565 16.5284 17.6529 16.7496 17.6529C16.9707 17.6529 17.1828 17.565 17.3392 17.4087C19.0406 15.7033 19.9962 13.3927 19.9962 10.9837C19.9962 8.57466 19.0406 6.26402 17.3392 4.55867V4.55867Z" fill="#007AFF"/>
<path d="M15.0834 7.05965C15.006 6.98195 14.914 6.92027 14.8128 6.87811C14.7115 6.83596 14.6029 6.81416 14.4932 6.81397C14.3835 6.81377 14.2749 6.83519 14.1735 6.87698C14.0721 6.91878 13.9799 6.98014 13.9022 7.05757C13.8245 7.13499 13.7628 7.22697 13.7206 7.32823C13.6785 7.4295 13.6567 7.53807 13.6565 7.64776C13.6563 7.75745 13.6777 7.86611 13.7195 7.96752C13.7613 8.06893 13.8227 8.16112 13.9001 8.23882C14.6274 8.96723 15.0359 9.95449 15.0359 10.9838C15.0359 12.0132 14.6274 13.0004 13.9001 13.7288C13.8227 13.8065 13.7613 13.8987 13.7195 14.0001C13.6777 14.1015 13.6563 14.2102 13.6565 14.3199C13.6567 14.4296 13.6785 14.5381 13.7206 14.6394C13.7628 14.7407 13.8245 14.8326 13.9022 14.9101C14.0591 15.0664 14.2717 15.1541 14.4932 15.1537C14.6029 15.1535 14.7115 15.1317 14.8128 15.0895C14.914 15.0474 15.006 14.9857 15.0834 14.908C16.1229 13.8665 16.7066 12.4552 16.7066 10.9838C16.7066 9.51241 16.1229 8.10111 15.0834 7.05965V7.05965Z" fill="#007AFF"/>
<path d="M11.5167 1.15048C8.98275 1.62654 6.7289 3.05869 5.22167 5.15048H4.16667C3.06214 5.15225 2.00336 5.5918 1.22234 6.37282C0.441316 7.15384 0.00176302 8.21262 0 9.31715L0 12.6505C0.00176302 13.755 0.441316 14.8138 1.22234 15.5948C2.00336 16.3758 3.06214 16.8154 4.16667 16.8172H5.22167C6.7292 18.9086 8.98291 20.3407 11.5167 20.8171C11.5664 20.8269 11.6169 20.8316 11.6675 20.8313C11.8885 20.8313 12.1005 20.7435 12.2568 20.5872C12.413 20.431 12.5008 20.219 12.5008 19.998V1.97215C12.5011 1.84976 12.4745 1.72881 12.4228 1.61789C12.371 1.50696 12.2955 1.40879 12.2016 1.33036C12.1076 1.25192 11.9976 1.19514 11.8792 1.16405C11.7608 1.13296 11.637 1.12833 11.5167 1.15048V1.15048ZM10.8333 18.9297C8.99532 18.3437 7.4149 17.1432 6.3575 15.5297C6.28195 15.4134 6.1786 15.3179 6.0568 15.2517C5.93501 15.1855 5.79862 15.1507 5.66 15.1505H4.16667C3.50363 15.1505 2.86774 14.8871 2.3989 14.4183C1.93006 13.9494 1.66667 13.3135 1.66667 12.6505V9.31715C1.66667 8.65411 1.93006 8.01822 2.3989 7.54938C2.86774 7.08054 3.50363 6.81715 4.16667 6.81715H5.66667C5.80514 6.81713 5.94142 6.78261 6.0632 6.7167C6.18499 6.65079 6.28842 6.55557 6.36417 6.43965C7.41941 4.82651 8.9974 3.62544 10.8333 3.03798V18.9297Z" fill="#007AFF"/>
</g>
<defs>
<clipPath id="clip0_159_1579">
<rect width="20" height="20" fill="white" transform="translate(0 0.983887)"/>
</clipPath>
</defs>
</svg>
